<?xml version="1.0" encoding="UTF-8" standalone="no"?>
<!-- Created with Inkscape (http://www.inkscape.org/) -->

<svg
   width="39.244465mm"
   height="36.72052mm"
   viewBox="0 0 39.244465 36.72052"
   version="1.1"
   id="svg1"
   xmlns="http://www.w3.org/2000/svg"
   xmlns:svg="http://www.w3.org/2000/svg">
  <defs
     id="defs1" />
  <g
     id="layer1"
     transform="translate(-170.39167,-254.12381)">
    <path
       id="path4"
       style="font-variation-settings:normal;fill:none;fill-opacity:1;stroke:#c89b3c;stroke-width:1.5;stroke-linecap:round;stroke-linejoin:miter;stroke-miterlimit:4;stroke-dasharray:none;stroke-dashoffset:0;stroke-opacity:1;paint-order:stroke markers fill"
       d="m 111.85898,127.94256 -7.04091,7.04091 -7.010943,-7.01094 a 18.872271,18.862423 0 0 0 -11.861291,17.46715 18.872271,18.862423 0 0 0 11.849923,17.4625 l 7.022311,-7.02231 7.02231,7.02231 a 18.872271,18.862423 0 0 0 11.84992,-17.4625 18.872271,18.862423 0 0 0 -11.83132,-17.49712 z" />
    <path
       id="path4-0"
       style="font-variation-settings:normal;fill:none;fill-opacity:1;stroke:#c89b3c;stroke-width:0.75;stroke-linecap:round;stroke-linejoin:miter;stroke-miterlimit:4;stroke-dasharray:none;stroke-dashoffset:0;stroke-opacity:1;paint-order:stroke markers fill"
       d="m 107.35125,129.1859 -2.53318,2.53317 -2.52491,-2.52491 a 16.461126,16.452536 0 0 0 -13.936102,16.24552 16.461126,16.452536 0 0 0 13.923182,16.24242 l 2.53783,-2.53783 2.53783,2.53783 a 16.461126,16.452536 0 0 0 13.92318,-16.24242 16.461126,16.452536 0 0 0 -13.92783,-16.25378 z" />
  </g>
</svg>
