<?xml version="1.0" encoding="UTF-8" standalone="no"?>
<!-- Created with Inkscape (http://www.inkscape.org/) -->

<svg
   width="48.827564mm"
   height="60.772835mm"
   viewBox="0 0 48.827564 60.772835"
   version="1.1"
   id="svg1"
   xml:space="preserve"
   inkscape:export-filename="shield.png"
   inkscape:export-xdpi="96"
   inkscape:export-ydpi="96"
   inkscape:version="1.3.2 (091e20e, 2023-11-25, custom)"
   sodipodi:docname="shield.svg"
   xmlns:inkscape="http://www.inkscape.org/namespaces/inkscape"
   xmlns:sodipodi="http://sodipodi.sourceforge.net/DTD/sodipodi-0.dtd"
   xmlns:xlink="http://www.w3.org/1999/xlink"
   xmlns="http://www.w3.org/2000/svg"
   xmlns:svg="http://www.w3.org/2000/svg"><sodipodi:namedview
     id="namedview1"
     pagecolor="#ffffff"
     bordercolor="#666666"
     borderopacity="1.0"
     inkscape:showpageshadow="2"
     inkscape:pageopacity="0.0"
     inkscape:pagecheckerboard="0"
     inkscape:deskcolor="#d1d1d1"
     inkscape:document-units="mm"
     inkscape:zoom="0.9814281"
     inkscape:cx="174.23589"
     inkscape:cy="155.38581"
     inkscape:window-width="1920"
     inkscape:window-height="1017"
     inkscape:window-x="-8"
     inkscape:window-y="549"
     inkscape:window-maximized="1"
     inkscape:current-layer="layer1" /><defs
     id="defs1"><linearGradient
       id="linearGradient1"
       inkscape:collect="always"><stop
         style="stop-color:#ceb57c;stop-opacity:1;"
         offset="0"
         id="stop1" /><stop
         style="stop-color:#ceb57c;stop-opacity:1;"
         offset="0.37818182"
         id="stop3" /><stop
         style="stop-color:#8c7446;stop-opacity:1;"
         offset="1"
         id="stop2" /></linearGradient><linearGradient
       inkscape:collect="always"
       xlink:href="#linearGradient1"
       id="linearGradient2"
       x1="72.70475"
       y1="58.736134"
       x2="72.70475"
       y2="118.98953"
       gradientUnits="userSpaceOnUse"
       spreadMethod="pad" /></defs><g
     inkscape:label="Calque 1"
     inkscape:groupmode="layer"
     id="layer1"
     transform="translate(-48.306844,-58.543817)"><path
       style="fill:url(#linearGradient2);stroke:#d1b98e;stroke-opacity:1"
       d="m 49.007779,59.507101 c 0,8.368521 -0.7437,17.126195 0.64431,25.400005 1.46162,8.71255 5.45968,16.765764 11.0635,23.547924 2.50077,3.0266 5.31658,5.71917 8.40052,8.14635 0.95319,0.7502 2.41056,2.21527 3.70417,2.21527 1.29715,0 2.72912,-1.46287 3.70417,-2.19302 3.19759,-2.39449 6.0314,-5.08093 8.56853,-8.1686 11.938147,-14.528674 11.539797,-31.212864 11.539797,-48.947929 -3.715087,2.614512 -6.749817,5.735066 -11.112497,7.390981 -1.29026,0.489735 -3.43535,1.317567 -4.7625,0.606539 -2.15984,-1.15714 -3.85995,-3.879264 -5.55237,-5.616271 -0.57655,-0.591739 -1.46417,-2.061954 -2.39166,-2.061954 -0.95764,0 -1.80039,1.450465 -2.38513,2.061954 -1.65635,1.732118 -3.41589,4.475143 -5.54584,5.616271 -1.36457,0.731073 -3.4621,-0.182244 -4.7625,-0.709024 -4.2424,-1.718557 -7.40309,-4.752104 -11.1125,-7.288496 m 24.07708,14.287505 7.52062,11.1125 2.58969,4.49792 -2.77608,4.49792 -7.33423,10.847914 h -0.52916 l -7.52062,-11.112504 -2.58969,-4.49791 2.77608,-4.49792 7.33423,-10.84792 z"
       id="path1" /></g></svg>
